<svg xmlns="http://www.w3.org/2000/svg" version="1.1" xmlns:xlink="http://www.w3.org/1999/xlink" xmlns:svgjs="http://svgjs.dev/svgjs" width="1440" height="560" preserveAspectRatio="none" viewBox="0 0 1440 560"><g mask="url(&quot;#SvgjsMask1689&quot;)" fill="none"><path d="M17.58 -54.96L103.32 -5.46L103.32 93.54L17.58 143.04L-68.16 93.54L-68.16 -5.46zM103.32 93.54L189.06 143.04L189.06 242.04L103.32 291.54L17.58 242.04L17.58 143.04zM274.8 93.54L360.54 143.04L360.54 242.04L274.8 291.54L189.06 242.04L189.06 143.04zM360.54 242.04L446.27 291.54L446.27 390.54L360.54 440.04L274.8 390.54L274.8 291.54zM446.27 390.54L532.01 440.04L532.01 539.04L446.27 588.54L360.54 539.04L360.54 440.04zM617.75 390.54L703.49 440.04L703.49 539.04L617.75 588.54L532.01 539.04L532.01 440.04zM703.49 -54.96L789.23 -5.46L789.23 93.54L703.49 143.04L617.75 93.54L617.75 -5.46zM703.49 242.04L789.23 291.54L789.23 390.54L703.49 440.04L617.75 390.54L617.75 291.54zM789.23 390.54L874.97 440.04L874.97 539.04L789.23 588.54L703.49 539.04L703.49 440.04zM874.97 539.04L960.71 588.54L960.71 687.54L874.97 737.04L789.23 687.54L789.23 588.54zM1046.45 -54.96L1132.19 -5.46L1132.19 93.54L1046.45 143.04L960.71 93.54L960.71 -5.46zM1132.19 390.54L1217.93 440.04L1217.93 539.04L1132.19 588.54L1046.45 539.04L1046.45 440.04zM1217.93 -54.96L1303.66 -5.46L1303.66 93.54L1217.93 143.04L1132.19 93.54L1132.19 -5.46zM1389.4 -54.96L1475.14 -5.46L1475.14 93.54L1389.4 143.04L1303.66 93.54L1303.66 -5.46zM1475.14 93.54L1560.88 143.04L1560.88 242.04L1475.14 291.54L1389.4 242.04L1389.4 143.04z" stroke="rgba(23, 33, 138, 0.35)" stroke-width="2"></path><path d="M7.68 -54.96 a9.9 9.9 0 1 0 19.8 0 a9.9 9.9 0 1 0 -19.8 0zM93.42 -5.46 a9.9 9.9 0 1 0 19.8 0 a9.9 9.9 0 1 0 -19.8 0zM93.42 93.54 a9.9 9.9 0 1 0 19.8 0 a9.9 9.9 0 1 0 -19.8 0zM7.68 143.04 a9.9 9.9 0 1 0 19.8 0 a9.9 9.9 0 1 0 -19.8 0zM-78.06 93.54 a9.9 9.9 0 1 0 19.8 0 a9.9 9.9 0 1 0 -19.8 0zM-78.06 -5.46 a9.9 9.9 0 1 0 19.8 0 a9.9 9.9 0 1 0 -19.8 0zM179.16 143.04 a9.9 9.9 0 1 0 19.8 0 a9.9 9.9 0 1 0 -19.8 0zM179.16 242.04 a9.9 9.9 0 1 0 19.8 0 a9.9 9.9 0 1 0 -19.8 0zM93.42 291.54 a9.9 9.9 0 1 0 19.8 0 a9.9 9.9 0 1 0 -19.8 0zM7.68 242.04 a9.9 9.9 0 1 0 19.8 0 a9.9 9.9 0 1 0 -19.8 0zM264.9 93.54 a9.9 9.9 0 1 0 19.8 0 a9.9 9.9 0 1 0 -19.8 0zM350.64 143.04 a9.9 9.9 0 1 0 19.8 0 a9.9 9.9 0 1 0 -19.8 0zM350.64 242.04 a9.9 9.9 0 1 0 19.8 0 a9.9 9.9 0 1 0 -19.8 0zM264.9 291.54 a9.9 9.9 0 1 0 19.8 0 a9.9 9.9 0 1 0 -19.8 0zM436.37 291.54 a9.9 9.9 0 1 0 19.8 0 a9.9 9.9 0 1 0 -19.8 0zM436.37 390.54 a9.9 9.9 0 1 0 19.8 0 a9.9 9.9 0 1 0 -19.8 0zM350.64 440.04 a9.9 9.9 0 1 0 19.8 0 a9.9 9.9 0 1 0 -19.8 0zM264.9 390.54 a9.9 9.9 0 1 0 19.8 0 a9.9 9.9 0 1 0 -19.8 0zM522.11 440.04 a9.9 9.9 0 1 0 19.8 0 a9.9 9.9 0 1 0 -19.8 0zM522.11 539.04 a9.9 9.9 0 1 0 19.8 0 a9.9 9.9 0 1 0 -19.8 0zM436.37 588.54 a9.9 9.9 0 1 0 19.8 0 a9.9 9.9 0 1 0 -19.8 0zM350.64 539.04 a9.9 9.9 0 1 0 19.8 0 a9.9 9.9 0 1 0 -19.8 0zM607.85 390.54 a9.9 9.9 0 1 0 19.8 0 a9.9 9.9 0 1 0 -19.8 0zM693.59 440.04 a9.9 9.9 0 1 0 19.8 0 a9.9 9.9 0 1 0 -19.8 0zM693.59 539.04 a9.9 9.9 0 1 0 19.8 0 a9.9 9.9 0 1 0 -19.8 0zM607.85 588.54 a9.9 9.9 0 1 0 19.8 0 a9.9 9.9 0 1 0 -19.8 0zM693.59 -54.96 a9.9 9.9 0 1 0 19.8 0 a9.9 9.9 0 1 0 -19.8 0zM779.33 -5.46 a9.9 9.9 0 1 0 19.8 0 a9.9 9.9 0 1 0 -19.8 0zM779.33 93.54 a9.9 9.9 0 1 0 19.8 0 a9.9 9.9 0 1 0 -19.8 0zM693.59 143.04 a9.9 9.9 0 1 0 19.8 0 a9.9 9.9 0 1 0 -19.8 0zM607.85 93.54 a9.9 9.9 0 1 0 19.8 0 a9.9 9.9 0 1 0 -19.8 0zM607.85 -5.46 a9.9 9.9 0 1 0 19.8 0 a9.9 9.9 0 1 0 -19.8 0zM693.59 242.04 a9.9 9.9 0 1 0 19.8 0 a9.9 9.9 0 1 0 -19.8 0zM779.33 291.54 a9.9 9.9 0 1 0 19.8 0 a9.9 9.9 0 1 0 -19.8 0zM779.33 390.54 a9.9 9.9 0 1 0 19.8 0 a9.9 9.9 0 1 0 -19.8 0zM607.85 291.54 a9.9 9.9 0 1 0 19.8 0 a9.9 9.9 0 1 0 -19.8 0zM865.07 440.04 a9.9 9.9 0 1 0 19.8 0 a9.9 9.9 0 1 0 -19.8 0zM865.07 539.04 a9.9 9.9 0 1 0 19.8 0 a9.9 9.9 0 1 0 -19.8 0zM779.33 588.54 a9.9 9.9 0 1 0 19.8 0 a9.9 9.9 0 1 0 -19.8 0zM950.81 588.54 a9.9 9.9 0 1 0 19.8 0 a9.9 9.9 0 1 0 -19.8 0zM950.81 687.54 a9.9 9.9 0 1 0 19.8 0 a9.9 9.9 0 1 0 -19.8 0zM865.07 737.04 a9.9 9.9 0 1 0 19.8 0 a9.9 9.9 0 1 0 -19.8 0zM779.33 687.54 a9.9 9.9 0 1 0 19.8 0 a9.9 9.9 0 1 0 -19.8 0zM1036.55 -54.96 a9.9 9.9 0 1 0 19.8 0 a9.9 9.9 0 1 0 -19.8 0zM1122.29 -5.46 a9.9 9.9 0 1 0 19.8 0 a9.9 9.9 0 1 0 -19.8 0zM1122.29 93.54 a9.9 9.9 0 1 0 19.8 0 a9.9 9.9 0 1 0 -19.8 0zM1036.55 143.04 a9.9 9.9 0 1 0 19.8 0 a9.9 9.9 0 1 0 -19.8 0zM950.81 93.54 a9.9 9.9 0 1 0 19.8 0 a9.9 9.9 0 1 0 -19.8 0zM950.81 -5.46 a9.9 9.9 0 1 0 19.8 0 a9.9 9.9 0 1 0 -19.8 0zM1122.29 390.54 a9.9 9.9 0 1 0 19.8 0 a9.9 9.9 0 1 0 -19.8 0zM1208.03 440.04 a9.9 9.9 0 1 0 19.8 0 a9.9 9.9 0 1 0 -19.8 0zM1208.03 539.04 a9.9 9.9 0 1 0 19.8 0 a9.9 9.9 0 1 0 -19.8 0zM1122.29 588.54 a9.9 9.9 0 1 0 19.8 0 a9.9 9.9 0 1 0 -19.8 0zM1036.55 539.04 a9.9 9.9 0 1 0 19.8 0 a9.9 9.9 0 1 0 -19.8 0zM1036.55 440.04 a9.9 9.9 0 1 0 19.8 0 a9.9 9.9 0 1 0 -19.8 0zM1208.03 -54.96 a9.9 9.9 0 1 0 19.8 0 a9.9 9.9 0 1 0 -19.8 0zM1293.76 -5.46 a9.9 9.9 0 1 0 19.8 0 a9.9 9.9 0 1 0 -19.8 0zM1293.76 93.54 a9.9 9.9 0 1 0 19.8 0 a9.9 9.9 0 1 0 -19.8 0zM1208.03 143.04 a9.9 9.9 0 1 0 19.8 0 a9.9 9.9 0 1 0 -19.8 0zM1379.5 -54.96 a9.9 9.9 0 1 0 19.8 0 a9.9 9.9 0 1 0 -19.8 0zM1465.24 -5.46 a9.9 9.9 0 1 0 19.8 0 a9.9 9.9 0 1 0 -19.8 0zM1465.24 93.54 a9.9 9.9 0 1 0 19.8 0 a9.9 9.9 0 1 0 -19.8 0zM1379.5 143.04 a9.9 9.9 0 1 0 19.8 0 a9.9 9.9 0 1 0 -19.8 0zM1550.98 143.04 a9.9 9.9 0 1 0 19.8 0 a9.9 9.9 0 1 0 -19.8 0zM1550.98 242.04 a9.9 9.9 0 1 0 19.8 0 a9.9 9.9 0 1 0 -19.8 0zM1465.24 291.54 a9.9 9.9 0 1 0 19.8 0 a9.9 9.9 0 1 0 -19.8 0zM1379.5 242.04 a9.9 9.9 0 1 0 19.8 0 a9.9 9.9 0 1 0 -19.8 0z" fill="rgba(23, 33, 138, 0.35)"></path><path d="M15.94 -76.01L141.52 -3.51L141.52 141.49L15.94 213.99L-109.64 141.49L-109.64 -3.51zM518.25 -76.01L643.83 -3.51L643.83 141.49L518.25 213.99L392.67 141.49L392.67 -3.51zM769.4 -76.01L894.98 -3.51L894.98 141.49L769.4 213.99L643.83 141.49L643.83 -3.51zM894.98 141.49L1020.56 213.99L1020.56 358.99L894.98 431.49L769.4 358.99L769.4 213.99zM1146.14 141.49L1271.71 213.99L1271.71 358.99L1146.14 431.49L1020.56 358.99L1020.56 213.99zM1146.14 576.49L1271.71 648.99L1271.71 793.99L1146.14 866.49L1020.56 793.99L1020.56 648.99zM1397.29 141.49L1522.87 213.99L1522.87 358.99L1397.29 431.49L1271.71 358.99L1271.71 213.99zM1397.29 576.49L1522.87 648.99L1522.87 793.99L1397.29 866.49L1271.71 793.99L1271.71 648.99z" stroke="rgba(23, 33, 138, 0.18)" stroke-width="2"></path></g><defs><mask id="SvgjsMask1689"><rect width="1440" height="560" fill="#ffffff"></rect></mask></defs></svg>